<svg xmlns="http://www.w3.org/2000/svg" xmlns:xlink="http://www.w3.org/1999/xlink" width="1920" zoomAndPan="magnify" viewBox="0 0 1440 809.999993" height="1080" preserveAspectRatio="xMidYMid meet" version="1.0"><defs><clipPath id="703b2a90ab"><path d="M 433 50.890625 L 1140.25 50.890625 L 1140.25 759.171875 L 433 759.171875 Z M 433 50.890625 " clip-rule="nonzero"/></clipPath><clipPath id="c63075bafe"><path d="M 603 139 L 1140.25 139 L 1140.25 758 L 603 758 Z M 603 139 " clip-rule="nonzero"/></clipPath><clipPath id="946ca85fbb"><path d="M 299.582031 721 L 878 721 L 878 757 L 299.582031 757 Z M 299.582031 721 " clip-rule="nonzero"/></clipPath></defs><path fill="#ffffff" d="M 924.941406 410.210938 L 1083.984375 272.386719 L 945.800781 431.109375 Z M 924.941406 410.210938 " fill-opacity="1" fill-rule="nonzero"/><g clip-path="url(#703b2a90ab)"><path stroke-linecap="butt" transform="matrix(0.268458, 0, 0, -0.268458, 201.595426, 1118.666796)" fill="none" stroke-linejoin="miter" d="M 2419.965179 2286.711696 L 2569.997499 2436.438452 " stroke="#333333" stroke-width="110" stroke-opacity="1" stroke-miterlimit="10"/></g><path fill="#ffffff" d="M 916.921875 461.460938 C 906.683594 463.597656 896.660156 457.054688 894.519531 446.820312 C 892.382812 436.59375 898.933594 426.570312 909.160156 424.421875 C 919.382812 422.28125 929.410156 428.835938 931.550781 439.058594 C 933.699219 449.285156 927.144531 459.320312 916.921875 461.460938 Z M 903.863281 399.148438 C 879.671875 404.222656 864.171875 427.933594 869.246094 452.117188 C 874.3125 476.308594 898.035156 491.796875 922.214844 486.730469 C 946.398438 481.667969 961.898438 457.957031 956.832031 433.765625 C 951.757812 409.582031 928.046875 394.082031 903.863281 399.148438 " fill-opacity="1" fill-rule="nonzero"/><g clip-path="url(#c63075bafe)"><path fill="#ffffff" d="M 883.109375 141.039062 C 800.96875 148.757812 726.746094 188.007812 674.125 251.546875 C 621.492188 315.085938 596.753906 395.320312 604.472656 477.460938 C 617.546875 616.546875 721.40625 725.628906 851.890625 751.582031 C 880.511719 757.277344 910.40625 758.964844 940.902344 756.101562 C 961.644531 754.152344 981.8125 750.230469 1001.328125 744.355469 C 998.265625 739.480469 995.90625 734.101562 994.351562 728.394531 C 973.90625 732.695312 952.898438 734.75 933.476562 733.921875 C 785.660156 727.589844 658.71875 620.960938 644.886719 473.664062 C 638.175781 402.3125 659.660156 332.628906 705.375 277.441406 C 751.085938 222.238281 815.554688 188.15625 886.90625 181.445312 C 971.417969 173.507812 1049.773438 197.78125 1106.390625 261.195312 L 1140.203125 239.445312 C 1075.027344 166.460938 980.40625 131.894531 883.109375 141.039062 " fill-opacity="1" fill-rule="nonzero"/></g><path fill="#ffffff" d="M 850.027344 166.617188 L 560.21875 154.535156 L 891.53125 140.726562 Z M 850.027344 166.617188 " fill-opacity="1" fill-rule="nonzero"/><path fill="#ffffff" d="M 633.570312 464.457031 L 383.191406 452.378906 L 633.570312 440.296875 Z M 633.570312 464.457031 " fill-opacity="1" fill-rule="nonzero"/><g clip-path="url(#946ca85fbb)"><path fill="#ffffff" d="M 877.21875 756.542969 L 299.53125 738.285156 L 836.960938 721.296875 Z M 877.21875 756.542969 " fill-opacity="1" fill-rule="nonzero"/></g><path fill="#ffffff" d="M 668.144531 610.871094 L 422.84375 601.980469 L 668.144531 593.097656 Z M 668.144531 610.871094 " fill-opacity="1" fill-rule="nonzero"/><path fill="#ffffff" d="M 662.1875 312.015625 L 505.339844 303.132812 L 662.1875 294.238281 Z M 662.1875 312.015625 " fill-opacity="1" fill-rule="nonzero"/><path fill="#ffffff" d="M 636.855469 387.726562 L 479.996094 378.84375 L 636.855469 369.953125 Z M 636.855469 387.726562 " fill-opacity="1" fill-rule="nonzero"/><path fill="#ffffff" d="M 639.589844 536.25 L 397.214844 527.355469 L 639.589844 518.476562 Z M 639.589844 536.25 " fill-opacity="1" fill-rule="nonzero"/><path fill="#ffffff" d="M 721.921875 683.828125 L 376.21875 674.945312 L 721.921875 666.054688 Z M 721.921875 683.828125 " fill-opacity="1" fill-rule="nonzero"/><path fill="#ffffff" d="M 721.921875 237.097656 L 565.074219 228.214844 L 721.921875 219.324219 Z M 721.921875 237.097656 " fill-opacity="1" fill-rule="nonzero"/><path fill="#ffffff" d="M 945.820312 94.050781 L 878.046875 94.050781 C 874.796875 94.050781 872.164062 91.417969 872.164062 88.175781 L 872.164062 56.980469 C 872.164062 53.726562 874.796875 51.097656 878.046875 51.097656 L 945.820312 51.097656 C 949.070312 51.097656 951.703125 53.726562 951.703125 56.980469 L 951.703125 88.175781 C 951.703125 91.417969 949.070312 94.050781 945.820312 94.050781 " fill-opacity="1" fill-rule="nonzero"/><path fill="#ffffff" d="M 931.800781 133.425781 L 892.066406 133.425781 L 892.066406 99.871094 L 931.800781 99.871094 L 931.800781 133.425781 " fill-opacity="1" fill-rule="nonzero"/><path fill="#ffffff" d="M 807.921875 257.558594 L 792.191406 230.292969 L 782.890625 235.660156 L 798.621094 262.9375 C 801.671875 261.070312 804.777344 259.277344 807.921875 257.558594 " fill-opacity="1" fill-rule="nonzero"/><path fill="#ffffff" d="M 911.96875 231.089844 C 913.773438 231.089844 915.566406 231.183594 917.359375 231.226562 L 917.371094 199.648438 L 906.632812 199.640625 L 906.621094 231.226562 C 908.40625 231.171875 910.175781 231.089844 911.96875 231.089844 " fill-opacity="1" fill-rule="nonzero"/><path fill="#ffffff" d="M 726.367188 335.179688 L 699.089844 319.429688 L 693.722656 328.730469 L 720.988281 344.46875 C 722.695312 341.324219 724.5 338.230469 726.367188 335.179688 " fill-opacity="1" fill-rule="nonzero"/><path fill="#ffffff" d="M 1025.363281 262.96875 L 1041.113281 235.703125 L 1031.820312 230.332031 L 1016.070312 257.589844 C 1019.21875 259.308594 1022.3125 261.101562 1025.363281 262.96875 " fill-opacity="1" fill-rule="nonzero"/><path fill="#ffffff" d="M 694.488281 448.570312 C 694.488281 446.765625 694.582031 444.972656 694.625 443.179688 L 663.050781 443.171875 L 663.039062 453.910156 L 694.625 453.917969 C 694.582031 452.136719 694.488281 450.363281 694.488281 448.570312 " fill-opacity="1" fill-rule="nonzero"/><path fill="#ffffff" d="M 720.957031 552.621094 L 693.691406 568.359375 L 699.058594 577.660156 L 726.335938 561.910156 C 724.46875 558.871094 722.675781 555.765625 720.957031 552.621094 " fill-opacity="1" fill-rule="nonzero"/><path fill="#ffffff" d="M 911.96875 666.054688 C 910.15625 666.054688 908.375 665.957031 906.570312 665.917969 L 906.570312 697.492188 L 917.308594 697.503906 L 917.308594 665.925781 C 915.523438 665.957031 913.761719 666.054688 911.96875 666.054688 " fill-opacity="1" fill-rule="nonzero"/><path fill="#ffffff" d="M 798.578125 634.175781 L 782.828125 661.449219 L 792.128906 666.820312 L 807.871094 639.554688 C 804.722656 637.84375 801.628906 636.039062 798.578125 634.175781 " fill-opacity="1" fill-rule="nonzero"/></svg>