<svg xmlns="http://www.w3.org/2000/svg" xmlns:xlink="http://www.w3.org/1999/xlink" width="1920" zoomAndPan="magnify" viewBox="0 0 1440 809.999993" height="1080" preserveAspectRatio="xMidYMid meet" version="1.0"><defs><filter x="0%" y="0%" width="100%" height="100%" id="d4e9bc706e"><feColorMatrix values="0 0 0 0 1 0 0 0 0 1 0 0 0 0 1 0 0 0 1 0" color-interpolation-filters="sRGB"/></filter><clipPath id="970ab2ac77"><path d="M 374.296875 355 L 1066.082031 355 L 1066.082031 385 L 374.296875 385 Z M 374.296875 355 " clip-rule="nonzero"/></clipPath><mask id="b0478a8d54"><g filter="url(#d4e9bc706e)"><rect x="-144" width="1728" fill="#000000" y="-80.999999" height="971.999992" fill-opacity="0.47"/></g></mask><clipPath id="7a5281a379"><path d="M 0.296875 1 L 692 1 L 692 29 L 0.296875 29 Z M 0.296875 1 " clip-rule="nonzero"/></clipPath><clipPath id="a754af61a3"><rect x="0" width="693" y="0" height="30"/></clipPath><clipPath id="0bf7b2a6bb"><path d="M 374.296875 367 L 1066 367 L 1066 395 L 374.296875 395 Z M 374.296875 367 " clip-rule="nonzero"/></clipPath></defs><path fill="#ffffff" d="M 691.5 301.695312 C 686.824219 302.785156 684.796875 295.613281 689.628906 294.523438 C 710.671875 289.691406 732.652344 289.847656 753.695312 294.679688 C 758.371094 295.769531 756.5 302.941406 751.824219 301.851562 C 731.871094 297.328125 711.296875 297.171875 691.5 301.695312 Z M 614.8125 334.425781 C 629.308594 321.800781 645.671875 311.359375 663.753906 304.8125 C 668.273438 303.097656 666.40625 295.925781 661.882812 297.640625 C 629.308594 309.644531 602.183594 332.558594 580.984375 359.679688 C 576.464844 365.445312 572.257812 371.371094 568.203125 377.449219 L 577.246094 377.449219 C 588 361.550781 600.3125 347.054688 614.8125 334.425781 Z M 618.082031 351.730469 C 621.355469 348.144531 616.058594 342.84375 612.785156 346.429688 C 603.898438 356.09375 595.636719 366.539062 588.15625 377.292969 L 597.195312 377.292969 C 603.742188 368.40625 610.601562 359.835938 618.082031 351.730469 Z M 688.226562 354.691406 C 675.601562 360.148438 663.910156 367.941406 653.777344 377.292969 L 665.15625 377.292969 C 673.261719 370.746094 682.304688 365.289062 691.8125 361.238281 C 696.332031 359.210938 692.589844 352.820312 688.226562 354.691406 Z M 705.839844 377.292969 L 726.417969 377.292969 C 719.558594 375.890625 712.699219 375.734375 705.839844 377.292969 Z M 694.460938 309.488281 C 677.316406 312.449219 662.195312 321.488281 648.636719 331.933594 C 636.164062 341.597656 625.097656 352.976562 615.589844 365.757812 C 612.785156 369.5 610.132812 373.238281 607.796875 377.292969 L 616.679688 377.292969 C 616.992188 376.824219 617.304688 376.359375 617.617188 375.890625 C 626.65625 362.640625 637.722656 350.636719 650.195312 340.507812 C 663.597656 329.441406 679.03125 319.929688 696.488281 316.8125 C 701.164062 315.878906 699.136719 308.707031 694.460938 309.488281 Z M 770.214844 368.097656 C 757.125 357.964844 741.066406 351.886719 724.546875 350.484375 C 720.492188 350.171875 716.441406 350.171875 712.386719 350.484375 C 707.710938 350.792969 707.554688 358.277344 712.386719 357.964844 C 733.273438 356.25 754.003906 363.730469 769.59375 377.292969 L 780.347656 377.292969 C 777.386719 374.019531 773.957031 370.902344 770.214844 368.097656 Z M 881.355469 339.414062 C 874.964844 329.75 867.324219 321.023438 858.285156 313.695312 C 854.542969 310.734375 849.246094 315.878906 852.984375 318.996094 C 872.003906 334.273438 883.378906 355.46875 893.511719 377.292969 L 901.460938 377.292969 C 895.539062 364.199219 889.304688 351.261719 881.355469 339.414062 Z M 855.324219 248.695312 C 823.371094 229.367188 787.207031 220.171875 750.265625 216.742188 C 728.285156 214.714844 706.308594 214.5625 684.175781 215.027344 C 679.34375 215.183594 679.34375 222.511719 684.175781 222.511719 C 722.050781 221.730469 760.398438 222.667969 797.183594 232.332031 C 829.917969 241.058594 860.15625 257.425781 884.941406 280.496094 C 898.34375 292.964844 910.035156 307.148438 919.542969 322.738281 C 922.039062 326.789062 928.585938 323.203125 926.089844 318.996094 C 908.632812 290.316406 884.160156 266 855.324219 248.695312 Z M 675.914062 191.023438 C 671.238281 191.804688 673.105469 198.972656 677.785156 198.195312 C 740.757812 188.375 806.847656 200.84375 862.492188 232.019531 C 878.238281 240.902344 893.199219 251.191406 907.074219 262.882812 C 910.660156 266 916.113281 260.699219 912.375 257.582031 C 861.871094 214.714844 797.027344 189.933594 730.9375 187.59375 C 712.542969 186.972656 694.148438 188.21875 675.914062 191.023438 Z M 804.042969 295.925781 C 783.152344 284.234375 760.242188 276.753906 736.546875 274.105469 C 731.714844 273.636719 731.871094 280.964844 736.546875 281.585938 C 777.699219 286.261719 815.886719 306.992188 844.257812 336.765625 C 855.945312 348.925781 865.921875 362.640625 874.339844 377.292969 L 882.914062 377.292969 C 864.675781 343.78125 837.554688 314.789062 804.042969 295.925781 Z M 831.164062 346.429688 C 816.042969 330.84375 798.742188 317.4375 780.035156 306.371094 C 775.828125 303.875 772.242188 310.421875 776.296875 312.761719 C 803.886719 329.128906 828.511719 350.792969 846.59375 377.292969 L 855.636719 377.292969 C 848.464844 366.226562 840.359375 355.78125 831.164062 346.429688 Z M 815.417969 264.597656 C 842.699219 279.25 865.144531 301.070312 885.09375 324.453125 C 896.628906 337.855469 907.230469 351.886719 917.984375 365.914062 C 919.230469 367.472656 921.101562 368.40625 923.128906 367.316406 C 924.6875 366.382812 925.777344 363.886719 924.53125 362.171875 C 905.203125 336.609375 885.5625 310.890625 862.027344 289.070312 C 837.710938 266.621094 809.183594 249.789062 776.761719 241.996094 C 757.125 237.316406 736.859375 235.605469 716.75 235.757812 C 711.917969 235.757812 711.917969 243.242188 716.75 243.242188 C 750.578125 243.085938 785.023438 248.386719 815.417969 264.597656 Z M 633.515625 297.796875 C 651.441406 287.507812 671.546875 281.117188 692.28125 281.117188 C 697.113281 281.117188 697.113281 273.636719 692.28125 273.636719 C 654.558594 273.636719 619.796875 293.121094 593.769531 319.464844 C 576.621094 336.765625 563.371094 356.71875 550.902344 377.136719 L 559.320312 377.136719 C 578.335938 346.273438 601.5625 316.347656 633.515625 297.796875 Z M 775.671875 341.128906 C 760.863281 330.6875 741.847656 324.761719 723.609375 327.101562 C 719.089844 327.726562 714.882812 328.660156 710.671875 330.21875 C 706.152344 331.777344 708.023438 339.105469 712.542969 337.390625 C 729.066406 331.464844 747.304688 333.960938 762.734375 342.066406 C 777.855469 350.015625 789.390625 362.796875 797.804688 377.449219 L 806.378906 377.449219 C 798.898438 363.109375 788.765625 350.328125 775.671875 341.128906 Z M 621.511719 280.964844 C 635.855469 272.703125 651.753906 267.246094 668.273438 266.464844 C 673.105469 266.3125 673.105469 258.828125 668.273438 258.984375 C 637.414062 260.386719 609.980469 276.753906 587.53125 296.863281 C 562.75 319.152344 542.640625 346.429688 524.25 374.019531 C 523.46875 375.109375 522.84375 376.203125 522.222656 377.292969 L 531.105469 377.292969 C 538.589844 366.070312 546.382812 355.003906 554.644531 344.246094 C 573.191406 320.085938 594.703125 296.394531 621.511719 280.964844 Z M 686.042969 329.128906 C 663.441406 340.195312 643.648438 356.875 628.839844 377.292969 L 638.191406 377.292969 C 641.933594 372.617188 645.828125 368.097656 650.039062 364.042969 C 661.574219 352.351562 675.132812 342.84375 689.785156 335.675781 C 693.996094 333.492188 690.253906 327.101562 686.042969 329.128906 Z M 697.734375 259.765625 C 739.507812 260.855469 780.660156 272.078125 817.289062 292.339844 C 821.5 294.679688 825.238281 288.132812 821.03125 285.949219 C 783.308594 265.0625 740.757812 253.527344 697.578125 252.4375 C 692.902344 252.125 692.902344 259.609375 697.734375 259.765625 Z M 797.496094 152.992188 C 824.148438 157.980469 849.246094 168.890625 871.066406 185.101562 C 874.964844 187.90625 878.546875 181.515625 874.808594 178.710938 C 852.519531 162.1875 826.644531 150.964844 799.363281 145.820312 C 794.6875 144.886719 792.664062 152.210938 797.496094 152.992188 Z M 510.84375 319.777344 C 541.082031 284.390625 579.269531 256.179688 621.824219 237.472656 C 633.828125 232.175781 646.296875 227.808594 658.921875 224.070312 C 663.597656 222.667969 661.574219 215.496094 657.050781 216.898438 C 611.539062 230.148438 569.140625 253.839844 533.757812 285.640625 C 523.78125 294.679688 514.273438 304.34375 505.542969 314.632812 C 502.425781 318.0625 507.726562 323.359375 510.84375 319.777344 Z M 497.125 362.484375 C 521.285156 347.054688 539.210938 324.609375 559.007812 304.5 C 578.960938 284.082031 601.875 267.402344 628.527344 256.800781 C 643.648438 250.722656 659.546875 246.515625 675.601562 244.488281 C 680.277344 243.863281 680.277344 236.382812 675.601562 237.007812 C 646.765625 240.746094 619.019531 250.410156 594.390625 265.84375 C 582.078125 273.480469 570.855469 282.523438 560.410156 292.652344 C 549.96875 302.785156 540.304688 313.695312 530.171875 324.296875 C 518.949219 335.984375 507.257812 347.363281 493.539062 356.09375 C 489.332031 358.589844 493.074219 365.132812 497.125 362.484375 Z M 528.457031 268.335938 C 559.789062 241.839844 595.949219 221.417969 634.917969 208.480469 C 639.4375 206.921875 637.566406 199.753906 633.046875 201.3125 C 592.832031 214.714844 555.578125 235.605469 523.3125 263.039062 C 519.570312 266.15625 524.871094 271.453125 528.457031 268.335938 Z M 580.519531 147.691406 C 590.648438 150.027344 601.5625 144.730469 611.070312 141.769531 C 651.597656 128.675781 693.058594 113.554688 736.390625 115.582031 C 758.214844 116.671875 779.257812 122.59375 799.988281 129.140625 C 818.539062 134.910156 837.398438 140.675781 854.078125 150.808594 C 858.285156 153.300781 862.335938 156.109375 866.078125 159.226562 C 869.820312 162.1875 875.121094 157.042969 871.378906 153.925781 C 856.882812 142.078125 839.890625 134.597656 822.433594 128.519531 C 803.417969 121.972656 783.933594 115.738281 764.136719 111.683594 C 743.875 107.632812 723.453125 107.007812 703.035156 109.65625 C 682.460938 112.308594 662.507812 117.609375 642.710938 123.6875 C 632.734375 126.804688 622.917969 129.921875 613.097656 133.195312 C 608.265625 134.753906 603.433594 136.3125 598.601562 137.871094 C 593.769531 139.429688 588.3125 141.300781 583.167969 140.519531 C 581.140625 140.210938 579.582031 139.742188 580.984375 137.558594 C 582.078125 135.6875 583.949219 134.441406 585.664062 133.039062 C 589.558594 129.921875 593.769531 127.117188 597.976562 124.621094 C 606.394531 119.632812 615.433594 115.425781 624.476562 111.683594 C 661.574219 96.566406 702.253906 89.863281 742.316406 92.511719 C 781.128906 95.003906 819.472656 106.382812 853.609375 125.246094 C 857.816406 127.582031 861.871094 129.921875 865.921875 132.414062 C 869.976562 134.910156 873.714844 128.519531 869.664062 126.023438 C 835.371094 104.667969 796.558594 91.109375 756.5 86.277344 C 715.347656 81.445312 672.953125 86.277344 633.828125 100.148438 C 614.8125 106.851562 595.792969 115.269531 580.050781 128.050781 C 576.777344 130.699219 573.035156 134.285156 572.878906 138.960938 C 572.570312 143.636719 576.308594 146.753906 580.519531 147.691406 Z M 544.042969 229.679688 C 588.15625 201.15625 637.566406 180.269531 689.785156 172.007812 C 738.886719 164.371094 789.699219 169.046875 835.996094 187.75 C 861.402344 197.882812 884.941406 212.535156 905.203125 230.925781 C 908.789062 234.199219 914.089844 228.902344 910.503906 225.628906 C 873.40625 191.648438 825.550781 171.070312 775.984375 163.902344 C 723.921875 156.421875 670.925781 164.058594 621.824219 182.140625 C 593.300781 192.738281 566.023438 206.609375 540.304688 223.132812 C 536.25 225.785156 539.992188 232.332031 544.042969 229.679688 Z M 555.578125 192.582031 C 602.964844 163.121094 657.832031 146.132812 713.632812 143.792969 C 729.378906 143.171875 745.121094 143.636719 760.707031 145.195312 C 765.539062 145.664062 765.382812 138.183594 760.707031 137.714844 C 704.28125 131.792969 646.609375 140.988281 594.546875 163.589844 C 579.738281 169.980469 565.554688 177.460938 551.992188 186.035156 C 547.785156 188.6875 551.527344 195.234375 555.578125 192.582031 Z M 597.042969 104.980469 C 648.792969 74.273438 710.984375 63.207031 770.0625 75.054688 C 786.894531 78.484375 803.417969 83.472656 819.160156 90.328125 C 823.523438 92.199219 827.265625 85.808594 822.902344 83.9375 C 765.230469 59 699.292969 56.191406 639.90625 76.925781 C 623.695312 82.535156 608.109375 89.863281 593.300781 98.589844 C 589.089844 101.085938 592.832031 107.476562 597.042969 104.980469 Z M 597.042969 104.980469 " fill-opacity="1" fill-rule="nonzero"/><path fill="#999999" d="M 583.324219 384.773438 L 592.207031 384.773438 C 591.429688 385.867188 590.804688 386.957031 590.027344 387.890625 C 587.53125 391.789062 581.453125 388.515625 583.324219 384.773438 Z M 568.203125 493.886719 C 576.152344 517.113281 594.546875 535.816406 617.773438 544.078125 C 631.957031 549.066406 647.230469 550 661.882812 546.882812 C 666.5625 545.949219 664.691406 538.777344 660.015625 539.714844 C 636.632812 544.546875 611.691406 537.6875 594.390625 521.164062 C 576.777344 504.328125 569.761719 480.949219 571.476562 457.101562 C 572.570312 442.757812 576.464844 428.730469 581.609375 415.324219 C 583.324219 410.804688 576.152344 408.933594 574.4375 413.457031 C 564.464844 438.550781 559.164062 467.542969 568.203125 493.886719 Z M 665 411.585938 C 660.324219 420.46875 656.585938 430.601562 657.988281 440.734375 C 659.078125 449.304688 664.535156 457.101562 672.640625 460.53125 C 676.535156 462.089844 680.433594 462.398438 684.484375 461.464844 C 689.164062 460.375 687.292969 453.203125 682.617188 454.292969 C 675.289062 456.007812 668.429688 450.085938 666.25 443.382812 C 663.441406 434.5 666.871094 424.679688 670.925781 416.574219 C 678.09375 402.542969 689.628906 389.449219 705.375 385.085938 C 705.839844 384.929688 706.308594 384.929688 706.777344 384.773438 L 688.695312 384.773438 C 678.5625 391.320312 670.613281 401.140625 665 411.585938 Z M 549.8125 486.25 C 548.5625 503.707031 554.175781 521.320312 564.621094 535.347656 C 575.375 549.84375 590.496094 560.132812 607.484375 565.898438 C 617.460938 569.171875 627.75 570.886719 638.191406 571.199219 C 643.023438 571.355469 643.023438 563.875 638.191406 563.71875 C 616.835938 563.09375 595.328125 555.769531 579.582031 541.117188 C 564.621094 527.085938 555.734375 506.824219 557.292969 486.25 C 557.605469 481.417969 550.125 481.417969 549.8125 486.25 Z M 499.621094 427.015625 C 508.191406 412.832031 516.921875 398.648438 525.960938 384.773438 L 517.078125 384.773438 C 508.972656 397.554688 501.023438 410.339844 493.074219 423.277344 C 490.734375 427.328125 497.125 431.070312 499.621094 427.015625 Z M 671.082031 566.992188 C 700.542969 557.328125 721.738281 533.011719 735.457031 505.886719 C 748.707031 479.546875 761.644531 443.695312 742.9375 416.574219 C 734.054688 403.636719 718.464844 395.839844 702.566406 398.804688 C 697.890625 399.738281 699.761719 406.910156 704.4375 405.972656 C 716.75 403.636719 729.378906 410.183594 736.390625 420.15625 C 744.1875 431.382812 745.898438 445.878906 743.875 459.28125 C 741.691406 473.621094 736.082031 487.652344 729.535156 500.589844 C 723.296875 513.058594 715.816406 525.0625 706.152344 535.347656 C 695.863281 546.261719 683.238281 554.988281 668.898438 559.664062 C 664.535156 561.378906 666.40625 568.550781 671.082031 566.992188 Z M 749.171875 397.246094 C 761.800781 408.933594 767.566406 426.238281 768.035156 443.226562 C 768.503906 461.621094 762.734375 479.390625 754.316406 495.601562 C 746.210938 511.1875 735.925781 525.996094 724.078125 539.246094 C 712.855469 551.871094 699.917969 563.25 684.796875 571.042969 C 668.273438 579.773438 650.039062 583.359375 631.488281 582.578125 C 612.160156 581.644531 593.921875 575.875 576.464844 567.925781 C 559.632812 560.289062 543.421875 551.558594 525.808594 545.792969 C 521.441406 544.390625 516.921875 543.140625 512.402344 542.207031 C 507.726562 541.273438 505.855469 548.441406 510.53125 549.378906 C 530.640625 553.585938 548.875 563.09375 567.425781 571.824219 C 586.285156 580.707031 605.613281 587.878906 626.5 589.59375 C 646.765625 591.308594 667.183594 587.878906 685.578125 578.992188 C 702.253906 570.886719 716.753906 558.574219 729.066406 544.855469 C 742.003906 530.515625 753.382812 514.148438 761.957031 496.847656 C 770.839844 479.234375 776.605469 459.59375 775.359375 439.640625 C 774.113281 421.09375 766.941406 402.386719 752.445312 390.230469 C 750.109375 388.203125 747.613281 386.488281 744.964844 384.773438 L 725.792969 384.773438 C 734.367188 386.644531 742.628906 391.164062 749.171875 397.246094 Z M 710.359375 584.449219 C 701.320312 590.371094 691.5 595.046875 681.058594 597.699219 C 676.378906 598.945312 678.40625 606.113281 682.925781 604.867188 C 702.410156 599.878906 719.402344 588.34375 734.367188 575.097656 C 748.863281 562.160156 761.332031 546.882812 771.464844 530.359375 C 777.230469 520.851562 782.21875 510.71875 786.425781 500.433594 C 787.207031 498.5625 785.492188 496.378906 783.777344 495.914062 C 781.59375 495.289062 780.035156 496.691406 779.257812 498.5625 C 765.539062 532.542969 741.378906 564.183594 710.359375 584.449219 Z M 614.65625 492.640625 C 625.253906 507.601562 642.867188 517.578125 661.574219 516.332031 C 666.40625 516.019531 666.40625 508.539062 661.574219 508.851562 C 646.296875 509.941406 631.800781 502.613281 622.449219 490.613281 C 612.628906 477.988281 609.042969 461.464844 609.980469 445.722656 C 611.226562 424.054688 620.109375 402.855469 632.734375 384.773438 L 623.695312 384.773438 C 621.980469 387.582031 620.265625 390.386719 618.550781 393.347656 C 602.339844 422.964844 593.613281 462.867188 614.65625 492.640625 Z M 583.011719 451.800781 C 581.921875 468.945312 583.636719 487.027344 591.742188 502.460938 C 595.328125 509.472656 600.3125 515.863281 606.394531 520.851562 C 613.40625 526.464844 621.511719 530.050781 630.085938 532.699219 C 646.609375 537.84375 663.753906 538.777344 679.808594 531.453125 C 694.148438 524.90625 705.683594 513.058594 714.414062 500.121094 C 724.855469 484.222656 731.558594 464.894531 728.910156 445.722656 C 727.664062 437.304688 724.390625 428.574219 717.84375 422.808594 C 710.828125 416.574219 701.632812 414.234375 692.589844 412.988281 C 687.914062 412.363281 685.890625 419.535156 690.722656 420.15625 C 697.890625 421.25 705.527344 422.652344 711.453125 427.171875 C 717.21875 431.691406 720.179688 438.707031 721.429688 445.878906 C 724.078125 461.464844 719.089844 477.675781 711.453125 491.082031 C 704.28125 503.550781 694.460938 514.773438 682.148438 522.097656 C 676.226562 525.683594 669.679688 528.179688 662.820312 529.269531 C 654.402344 530.515625 645.828125 529.269531 637.722656 527.242188 C 629.773438 525.21875 621.824219 522.410156 614.964844 517.890625 C 608.730469 513.839844 603.742188 508.070312 600.003906 501.679688 C 591.742188 487.652344 590.027344 470.972656 590.648438 454.917969 C 591.742188 430.132812 599.691406 406.128906 612.316406 384.929688 L 603.742188 384.929688 C 591.742188 405.351562 584.414062 428.261719 583.011719 451.800781 Z M 656.742188 384.773438 L 646.453125 384.773438 C 644.425781 387.113281 642.398438 389.449219 640.375 391.945312 C 627.125 408.933594 616.679688 430.914062 619.175781 452.890625 C 621.203125 471.597656 633.984375 490.300781 653.46875 493.730469 C 673.261719 497.160156 696.488281 484.84375 704.75 466.453125 C 709.269531 456.632812 708.648438 443.695312 699.605469 436.367188 C 691.65625 429.976562 679.5 431.070312 673.574219 439.640625 C 670.769531 443.539062 677.316406 447.28125 679.964844 443.382812 C 684.175781 437.304688 693.527344 439.488281 697.113281 444.785156 C 701.945312 451.957031 699.761719 460.839844 695.398438 467.542969 C 686.042969 481.570312 666.25 491.082031 649.726562 485.15625 C 634.292969 479.546875 626.1875 462.554688 626.035156 446.96875 C 626.035156 428.417969 635.074219 410.492188 646.296875 396.308594 C 649.726562 392.101562 653.15625 388.203125 656.742188 384.773438 Z M 541.550781 538.621094 C 543.421875 538.933594 545.601562 538 546.070312 535.972656 C 546.539062 534.101562 545.445312 531.761719 543.421875 531.453125 C 535.472656 529.894531 527.367188 528.957031 519.261719 528.488281 C 517.234375 528.335938 515.519531 530.359375 515.519531 532.230469 C 515.675781 534.414062 517.234375 535.816406 519.261719 535.972656 C 526.898438 536.285156 534.066406 537.21875 541.550781 538.621094 Z M 817.445312 709.617188 C 780.035156 722.242188 740.757812 728.632812 701.320312 728.476562 C 696.488281 728.476562 696.488281 735.957031 701.320312 735.957031 C 741.378906 736.113281 781.4375 729.722656 819.316406 716.941406 C 823.835938 715.382812 821.964844 708.054688 817.445312 709.617188 Z M 867.636719 670.957031 C 833.96875 686.546875 798.117188 697.300781 761.488281 702.914062 C 723.144531 708.835938 684.019531 708.679688 645.363281 705.5625 C 623.070312 703.691406 600.78125 700.886719 578.648438 697.457031 C 573.972656 696.679688 571.945312 704.003906 576.777344 704.628906 C 616.371094 710.707031 656.273438 715.226562 696.488281 715.226562 C 735.300781 715.070312 774.113281 710.394531 811.523438 699.796875 C 832.097656 694.027344 852.050781 686.546875 871.378906 677.503906 C 875.742188 675.480469 872.003906 668.933594 867.636719 670.957031 Z M 710.671875 746.089844 C 695.554688 746.714844 680.589844 746.402344 665.46875 745.464844 C 660.636719 745.15625 660.792969 752.636719 665.46875 752.949219 C 680.433594 753.882812 695.554688 754.195312 710.671875 753.570312 C 715.503906 753.414062 715.503906 745.933594 710.671875 746.089844 Z M 842.542969 485.625 C 833.191406 536.285156 807.160156 583.359375 769.59375 618.429688 C 759.148438 628.25 747.613281 636.976562 735.613281 644.773438 C 731.558594 647.421875 735.300781 653.8125 739.355469 651.320312 C 784.089844 622.949219 818.539062 580.085938 837.710938 530.828125 C 843.164062 516.800781 847.21875 502.304688 849.867188 487.496094 C 850.492188 482.820312 843.320312 480.792969 842.542969 485.625 Z M 675.445312 665.816406 C 688.382812 663.476562 701.007812 660.046875 713.324219 655.839844 C 717.84375 654.28125 715.972656 647.109375 711.453125 648.667969 C 668.898438 663.632812 622.449219 666.59375 578.335938 657.242188 C 565.710938 654.59375 553.394531 650.851562 541.238281 646.332031 C 536.71875 644.617188 534.847656 651.785156 539.367188 653.5 C 582.542969 669.867188 630.085938 673.921875 675.445312 665.816406 Z M 662.820312 688.261719 C 667.496094 687.636719 667.496094 680.15625 662.820312 680.777344 C 627.75 684.988281 592.675781 679.375 558.074219 673.609375 C 553.394531 672.828125 551.371094 680 556.203125 680.777344 C 591.429688 686.703125 627.125 692.46875 662.820312 688.261719 Z M 882.289062 647.109375 C 837.554688 665.191406 790.480469 677.503906 742.625 683.117188 C 729.066406 684.675781 715.503906 685.765625 701.945312 686.390625 C 697.113281 686.546875 697.113281 694.027344 701.945312 693.871094 C 750.578125 691.847656 798.898438 683.429688 845.191406 668.621094 C 858.285156 664.410156 871.222656 659.734375 884.003906 654.59375 C 888.679688 652.410156 886.808594 645.238281 882.289062 647.109375 Z M 666.871094 727.386719 C 648.636719 727.539062 630.398438 726.292969 612.316406 723.800781 C 610.289062 723.488281 608.265625 724.421875 607.796875 726.449219 C 607.328125 728.164062 608.417969 730.660156 610.445312 730.96875 C 629.152344 733.621094 648.011719 735.023438 666.871094 734.867188 C 671.703125 734.867188 671.703125 727.386719 666.871094 727.386719 Z M 904.890625 384.773438 L 896.941406 384.773438 C 902.863281 398.023438 908.632812 411.273438 915.800781 423.429688 C 921.726562 433.5625 928.429688 443.070312 936.691406 451.488281 C 940.117188 454.917969 945.417969 449.617188 941.988281 446.1875 C 924.84375 428.730469 914.867188 406.753906 904.890625 384.773438 Z M 945.730469 411.585938 C 944.640625 410.648438 944.015625 410.339844 942.925781 409.402344 C 941.832031 408.46875 940.742188 407.53125 939.808594 406.597656 C 937.78125 404.726562 935.910156 402.855469 934.039062 400.828125 C 930.296875 396.777344 927.492188 392.722656 924.53125 388.046875 C 923.441406 386.332031 921.257812 385.710938 919.386719 386.644531 C 917.671875 387.582031 916.894531 390.074219 917.984375 391.789062 C 924.21875 402.078125 932.324219 410.960938 941.988281 418.132812 C 943.546875 419.222656 946.199219 418.445312 947.132812 416.730469 C 948.066406 414.703125 947.289062 412.832031 945.730469 411.585938 Z M 887.277344 385.242188 C 887.121094 385.085938 887.121094 384.929688 886.964844 384.773438 L 878.546875 384.773438 C 878.859375 385.242188 879.015625 385.710938 879.328125 386.175781 C 888.523438 403.945312 895.226562 422.964844 902.863281 441.511719 C 911.28125 462.242188 920.945312 482.507812 935.441406 499.652344 C 938.558594 503.394531 943.859375 498.09375 940.742188 494.355469 C 914.242188 463.023438 905.359375 421.40625 887.277344 385.242188 Z M 895.382812 615.15625 C 848.464844 640.5625 797.027344 657.398438 744.1875 664.566406 C 729.222656 666.59375 714.101562 667.839844 698.980469 668.308594 C 694.148438 668.464844 694.148438 675.945312 698.980469 675.789062 C 753.382812 674.074219 807.316406 662.386719 857.660156 641.5 C 871.847656 635.574219 885.5625 629.027344 899.125 621.703125 C 903.332031 619.207031 899.589844 612.816406 895.382812 615.15625 Z M 903.957031 494.042969 C 897.253906 476.894531 891.640625 459.28125 885.40625 441.980469 C 879.171875 424.523438 872.46875 407.21875 863.742188 391.007812 C 862.648438 388.828125 861.402344 386.800781 860.3125 384.773438 L 851.582031 384.773438 C 852.984375 387.113281 854.386719 389.449219 855.792969 391.945312 C 873.5625 424.054688 882.914062 459.90625 896.164062 494.042969 C 903.488281 513.058594 912.375 531.761719 926.246094 546.882812 C 929.519531 550.46875 934.820312 545.167969 931.546875 541.582031 C 918.765625 527.867188 910.660156 511.1875 903.957031 494.042969 Z M 903.332031 588.5 C 876.210938 598.945312 849.089844 609.386719 821.8125 619.832031 C 817.289062 621.546875 819.316406 628.71875 823.679688 627.003906 L 905.203125 595.671875 C 909.722656 593.957031 907.851562 586.785156 903.332031 588.5 Z M 854.542969 439.019531 C 850.023438 425.613281 845.191406 410.492188 834.902344 400.363281 C 831.476562 396.933594 826.175781 402.234375 829.605469 405.660156 C 838.644531 414.703125 842.855469 428.109375 846.90625 439.953125 C 851.425781 452.890625 855.011719 465.984375 858.910156 479.078125 C 865.921875 503.082031 873.40625 527.085938 886.34375 548.597656 C 893.355469 560.132812 901.773438 570.730469 911.90625 579.617188 C 915.492188 582.734375 920.789062 577.433594 917.207031 574.316406 C 877.769531 540.335938 870.441406 485.78125 854.542969 439.019531 Z M 844.414062 593.957031 C 845.972656 595.515625 848.152344 595.203125 849.710938 593.957031 C 857.503906 587.566406 865.765625 581.800781 874.496094 576.65625 C 876.210938 575.5625 876.835938 573.382812 875.898438 571.511719 C 874.964844 569.796875 872.46875 569.015625 870.753906 570.109375 C 861.558594 575.5625 852.828125 581.800781 844.414062 588.5 C 842.855469 589.90625 843.164062 592.710938 844.414062 593.957031 Z M 496.8125 466.296875 C 522.222656 443.851562 537.652344 413.457031 554.800781 384.773438 L 546.382812 384.773438 C 540.925781 393.972656 535.472656 403.167969 529.859375 412.363281 C 519.105469 430.132812 507.101562 447.125 491.515625 460.996094 C 488.085938 464.113281 493.230469 469.414062 496.8125 466.296875 Z M 496.347656 501.992188 C 523.625 481.417969 536.09375 448.527344 551.527344 419.378906 C 557.761719 407.53125 564.464844 395.839844 571.945312 384.617188 L 563.0625 384.617188 C 558.851562 391.164062 554.800781 398.023438 550.902344 404.882812 C 542.328125 420.3125 534.847656 436.367188 526.429688 451.957031 C 517.703125 468.167969 507.570312 484.222656 492.605469 495.601562 C 491.046875 496.847656 490.113281 498.71875 491.203125 500.746094 C 492.136719 502.148438 494.789062 503.238281 496.347656 501.992188 Z M 661.261719 645.394531 C 700.851562 643.214844 739.820312 630.277344 769.75 603.464844 C 797.960938 578.371094 816.824219 543.453125 823.992188 506.511719 C 831.785156 466.296875 827.421875 422.183594 810.277344 384.773438 L 802.015625 384.773438 C 809.496094 400.050781 814.328125 416.882812 817.132812 433.5625 C 820.5625 453.671875 821.1875 474.558594 818.382812 494.664062 C 813.394531 530.984375 797.339844 565.433594 771.464844 591.617188 C 744.808594 618.429688 709.269531 633.238281 671.859375 637.132812 C 630.242188 641.5 588.625 633.238281 549.03125 621.078125 C 543.886719 619.519531 538.898438 617.804688 533.757812 616.246094 C 529.234375 614.6875 527.367188 622.015625 531.886719 623.417969 C 573.503906 637.132812 617.148438 647.890625 661.261719 645.394531 Z M 853.921875 534.570312 C 852.363281 533.632812 849.554688 534.101562 848.777344 535.972656 C 835.058594 569.328125 815.109375 599.878906 789.855469 625.597656 C 786.425781 629.027344 791.726562 634.328125 795.15625 630.898438 C 820.71875 604.554688 841.296875 573.539062 855.167969 539.714844 C 856.101562 537.84375 855.792969 535.660156 853.921875 534.570312 Z M 691.8125 624.820312 C 710.359375 619.519531 727.039062 609.234375 741.691406 596.917969 C 767.566406 575.097656 786.894531 545.636719 797.339844 513.371094 C 807.9375 480.792969 810.121094 444.164062 799.832031 411.273438 C 796.871094 401.609375 792.351562 392.722656 786.582031 384.773438 L 777.074219 384.773438 C 781.90625 390.386719 785.960938 396.621094 789.078125 403.480469 C 796.089844 419.378906 798.742188 437.460938 799.054688 454.761719 C 799.363281 470.816406 797.183594 486.714844 792.972656 502.304688 C 784.558594 533.320312 767.878906 562.003906 744.652344 584.292969 C 731.871094 596.449219 717.0625 607.207031 700.695312 614.066406 C 681.992188 621.859375 661.730469 622.792969 641.777344 621.859375 C 603.585938 619.832031 566.023438 609.078125 532.351562 590.996094 C 528.144531 588.65625 524.09375 586.320312 520.039062 583.824219 C 515.988281 581.332031 512.246094 587.722656 516.296875 590.214844 C 550.589844 611.101562 589.402344 624.195312 629.308594 628.25 C 650.039062 630.121094 671.546875 630.429688 691.8125 624.820312 Z M 652.53125 607.050781 C 657.207031 606.582031 657.363281 599.101562 652.53125 599.570312 C 602.339844 604.246094 558.074219 574.160156 510.84375 563.09375 C 506.167969 562.003906 504.296875 569.171875 508.972656 570.265625 C 556.980469 581.644531 601.5625 611.882812 652.53125 607.050781 Z M 551.683594 458.035156 C 553.242188 453.515625 546.070312 451.644531 544.511719 456.164062 C 535.003906 482.351562 516.609375 504.953125 493.074219 519.761719 C 489.019531 522.253906 492.761719 528.800781 496.8125 526.308594 C 522.066406 510.253906 541.394531 486.25 551.683594 458.035156 Z M 551.683594 458.035156 " fill-opacity="1" fill-rule="nonzero"/><g clip-path="url(#970ab2ac77)"><g mask="url(#b0478a8d54)"><g transform="matrix(1, 0, 0, 1, 374, 355)"><g clip-path="url(#a754af61a3)"><g clip-path="url(#7a5281a379)"><path fill="#1d4ed8" d="M 0.296875 1.5625 L 691.910156 1.5625 L 691.910156 28.839844 L 0.296875 28.839844 Z M 0.296875 1.5625 " fill-opacity="1" fill-rule="nonzero"/></g></g></g></g></g><g clip-path="url(#0bf7b2a6bb)"><path fill="#1d4ed8" d="M 374.296875 367.316406 L 1065.910156 367.316406 L 1065.910156 394.59375 L 374.296875 394.59375 Z M 374.296875 367.316406 " fill-opacity="1" fill-rule="nonzero"/></g></svg>